<svg fill="#2B2E33" id="db1e0668-6f90-4ded-84f5-c58ec5ee319e" data-name="f" xmlns="http://www.w3.org/2000/svg" viewBox="0 0 30 30"><title>facebook</title><path d="M24.38,0a5.42,5.42,0,0,1,4,1.65,5.42,5.42,0,0,1,1.65,4V24.38A5.63,5.63,0,0,1,24.38,30H20.7V18.38h3.89l.59-4.53H20.7V11a2.5,2.5,0,0,1,.46-1.64,2.28,2.28,0,0,1,1.79-.55l2.38,0v-4a26.18,26.18,0,0,0-3.48-.18,5.8,5.8,0,0,0-4.25,1.56A5.91,5.91,0,0,0,16,10.51v3.34H12.11v4.53H16V30H5.63a5.42,5.42,0,0,1-4-1.65,5.42,5.42,0,0,1-1.65-4V5.63a5.42,5.42,0,0,1,1.65-4A5.42,5.42,0,0,1,5.63,0Z"/></svg>