<svg fill="#2B2E33" id="2a4c3031-421e-4a05-bdae-60cd004d3431" data-name="g" xmlns="http://www.w3.org/2000/svg" viewBox="0 0 30 30"><title>googleplus</title><path d="M30,5.63V24.38A5.63,5.63,0,0,1,24.38,30H5.63a5.42,5.42,0,0,1-4-1.65,5.42,5.42,0,0,1-1.65-4V5.63a5.42,5.42,0,0,1,1.65-4A5.42,5.42,0,0,1,5.63,0H24.38a5.42,5.42,0,0,1,4,1.65A5.42,5.42,0,0,1,30,5.63ZM17.91,15.18a8.26,8.26,0,0,0-.12-1.25H10.72V16.5H15a2.92,2.92,0,0,1-.32,1,5.17,5.17,0,0,1-.73,1,3.47,3.47,0,0,1-1.3.87,4.94,4.94,0,0,1-1.88.34,4.47,4.47,0,0,1-3.3-1.39,4.76,4.76,0,0,1,0-6.68,4.47,4.47,0,0,1,3.3-1.39,4.13,4.13,0,0,1,3,1.15l2-2a7.14,7.14,0,0,0-5-2A7.22,7.22,0,0,0,5.41,9.7,7.24,7.24,0,0,0,3.22,15a7.24,7.24,0,0,0,2.19,5.3,7.22,7.22,0,0,0,5.31,2.2,6.91,6.91,0,0,0,5.21-2.05A7.27,7.27,0,0,0,17.91,15.18Zm6.74.9h2.13V13.93H24.65V11.78H22.5v2.15H20.35v2.15H22.5v2.15h2.15Z"/></svg>