<svg fill="#ffffff" id="bdc266ff-35ec-401a-863f-e0ad8fd35e8c" data-name="i" xmlns="http://www.w3.org/2000/svg" viewBox="0 0 30 30"><title>linkedin</title><path d="M30,5.63V24.38A5.63,5.63,0,0,1,24.38,30H5.63a5.42,5.42,0,0,1-4-1.65,5.42,5.42,0,0,1-1.65-4V5.63a5.42,5.42,0,0,1,1.65-4A5.42,5.42,0,0,1,5.63,0H24.38a5.42,5.42,0,0,1,4,1.65A5.42,5.42,0,0,1,30,5.63ZM9.43,7.38a2.31,2.31,0,0,0-.7-1.68A2.5,2.5,0,0,0,6.91,5a2.6,2.6,0,0,0-1.85.66,2.2,2.2,0,0,0-.71,1.68A2.23,2.23,0,0,0,5,9.05a2.48,2.48,0,0,0,1.81.67h0a2.57,2.57,0,0,0,1.86-.67A2.22,2.22,0,0,0,9.43,7.38ZM4.63,25.12H9.14V11.56H4.63Zm16.23,0h4.51V17.34a6.49,6.49,0,0,0-1.43-4.55,4.89,4.89,0,0,0-3.77-1.54,4.54,4.54,0,0,0-4.08,2.29h0v-2H11.62q.06,1.29,0,13.56h4.51V17.54a3.24,3.24,0,0,1,.14-1.09,3,3,0,0,1,.88-1.16,2.21,2.21,0,0,1,1.45-.48q2.27,0,2.27,3.07Z"/></svg>