<svg fill="#2B2E33" id="91d0940a-4c60-4201-85e2-21755e46f069" data-name="t" xmlns="http://www.w3.org/2000/svg" viewBox="0 0 30 30"><title>twitter</title><path d="M30,5.63V24.38A5.63,5.63,0,0,1,24.38,30H5.63a5.42,5.42,0,0,1-4-1.65,5.42,5.42,0,0,1-1.65-4V5.63a5.42,5.42,0,0,1,1.65-4A5.42,5.42,0,0,1,5.63,0H24.38a5.42,5.42,0,0,1,4,1.65A5.42,5.42,0,0,1,30,5.63ZM25,9.41a8.68,8.68,0,0,1-2.36.66,4,4,0,0,0,1.82-2.29,8.14,8.14,0,0,1-2.62,1,3.9,3.9,0,0,0-3-1.29,4.1,4.1,0,0,0-4.1,4.1,3.74,3.74,0,0,0,.1.94,11.61,11.61,0,0,1-4.73-1.27,11.61,11.61,0,0,1-3.75-3,4.06,4.06,0,0,0-.57,2.07,3.87,3.87,0,0,0,1.78,3.42,4.83,4.83,0,0,1-2-.51v0a3.9,3.9,0,0,0,1,2.61A4.1,4.1,0,0,0,9,17.29a3.8,3.8,0,0,1-1,.16,5.55,5.55,0,0,1-.76-.08,4.17,4.17,0,0,0,1.46,2,3.89,3.89,0,0,0,2.37.82A8.11,8.11,0,0,1,6,22a7.87,7.87,0,0,1-1-.06,11.51,11.51,0,0,0,6.29,1.84,12,12,0,0,0,4.1-.69,10.56,10.56,0,0,0,3.28-1.86A12.32,12.32,0,0,0,21,18.53,11.82,11.82,0,0,0,23,12.07c0-.23,0-.41,0-.53A8,8,0,0,0,25,9.41Z"/></svg>